<?xml version="1.0" encoding="utf-8"?>
<!-- Generator: Adobe Illustrator 27.5.0, SVG Export Plug-In . SVG Version: 6.00 Build 0)  -->
<svg version="1.1" xmlns="http://www.w3.org/2000/svg" xmlns:xlink="http://www.w3.org/1999/xlink" x="0px" y="0px"
	 viewBox="0 0 500 500" style="enable-background:new 0 0 500 500;" xml:space="preserve">
<g id="BACKGROUND">
	<rect style="fill:#EDF9F7;" width="500" height="500"/>
</g>
<g id="OBJECTS">
	<path style="opacity:0.2;fill:#29564F;" d="M442.047,430.376H57.953c-4.419,0-8.002-3.582-8.002-8.001l0,0
		c0-4.419,3.582-8.001,8.002-8.001h384.094c4.419,0,8.001,3.582,8.001,8.001l0,0C450.049,426.794,446.466,430.376,442.047,430.376z"
		/>
	<g>
		<g>
			<g>
				<g>
					<path style="fill:#666667;" d="M264.274,138.025v-11.893c0-1.152,0.467-2.194,1.221-2.949c0.755-0.755,1.797-1.221,2.949-1.221
						h21.881c1.121,0,2.138,0.442,2.887,1.161c0.791,0.759,1.283,1.827,1.283,3.009v11.893c0,1.152-0.467,2.194-1.221,2.949
						c-0.755,0.755-1.797,1.221-2.949,1.221h-21.881c-1.149,0-2.19-0.465-2.945-1.217
						C264.742,140.223,264.274,139.179,264.274,138.025z"/>
					<path style="fill:#424242;" d="M265.935,138.026c0,0.671,0.262,1.302,0.738,1.777c0.473,0.471,1.102,0.732,1.771,0.732h21.881
						c0.671,0,1.3-0.26,1.774-0.734c0.474-0.475,0.735-1.105,0.735-1.774v-11.894c0-0.69-0.274-1.333-0.772-1.812
						c-0.47-0.449-1.086-0.698-1.737-0.698h-21.881c-0.67,0-1.3,0.261-1.774,0.735c-0.474,0.475-0.735,1.104-0.735,1.774V138.026z"
						/>
					<path style="fill:#313130;" d="M292.099,139.8c0.474-0.475,0.735-1.105,0.735-1.774v-11.894c0-0.69-0.274-1.333-0.772-1.812
						c-0.47-0.449-1.086-0.698-1.737-0.698h-2.159c0.651,0,1.267,0.248,1.737,0.698c0.498,0.479,0.772,1.122,0.772,1.812v11.894
						c0,0.669-0.261,1.3-0.735,1.774c-0.474,0.474-1.103,0.734-1.774,0.734h2.159C290.995,140.534,291.625,140.274,292.099,139.8z"
						/>
				</g>
				<g>
					<path style="fill:#666667;" d="M382.823,138.025v-11.893c0-1.152,0.467-2.194,1.221-2.949c0.755-0.755,1.797-1.221,2.949-1.221
						h21.881c1.12,0,2.138,0.442,2.887,1.161c0.791,0.759,1.283,1.827,1.283,3.009v11.893c0,1.152-0.467,2.194-1.221,2.949
						c-0.755,0.755-1.797,1.221-2.949,1.221h-21.881c-1.149,0-2.19-0.465-2.944-1.217
						C383.292,140.223,382.823,139.179,382.823,138.025z"/>
					<path style="fill:#424242;" d="M384.484,138.026c0,0.671,0.262,1.302,0.738,1.777c0.473,0.471,1.102,0.732,1.771,0.732h21.881
						c0.671,0,1.3-0.26,1.774-0.734c0.474-0.475,0.735-1.105,0.735-1.774v-11.894c0-0.69-0.274-1.333-0.772-1.812
						c-0.47-0.449-1.086-0.698-1.737-0.698h-21.881c-0.67,0-1.3,0.261-1.774,0.735c-0.474,0.475-0.735,1.104-0.735,1.774V138.026z"
						/>
					<path style="fill:#313130;" d="M410.648,139.8c0.474-0.475,0.735-1.105,0.735-1.774v-11.894c0-0.69-0.274-1.333-0.772-1.812
						c-0.47-0.449-1.086-0.698-1.737-0.698h-2.159c0.651,0,1.267,0.248,1.737,0.698c0.498,0.479,0.772,1.122,0.772,1.812v11.894
						c0,0.669-0.261,1.3-0.735,1.774c-0.474,0.474-1.103,0.734-1.774,0.734h2.159C409.545,140.534,410.174,140.274,410.648,139.8z"
						/>
				</g>
			</g>
			<path style="fill:#EFC998;" d="M431.821,422.375H245.497c-2.589,0-4.932-1.049-6.629-2.746c-1.697-1.696-2.746-4.04-2.746-6.629
				V141.775c0-3.551,1.975-6.641,4.886-8.232c1.333-0.729,2.863-1.143,4.489-1.143h186.324c3.335,0,6.264,1.742,7.925,4.365
				c0.918,1.449,1.449,3.167,1.449,5.009V413c0,2.936-1.35,5.556-3.462,7.275C436.121,421.588,434.063,422.375,431.821,422.375z"/>
			<path style="fill:#D0A363;" d="M239.445,413.001c0,1.616,0.63,3.136,1.773,4.28c1.143,1.142,2.663,1.772,4.279,1.772h186.324
				c1.407,0,2.727-0.469,3.815-1.353c1.423-1.157,2.237-2.868,2.237-4.699V141.775c0-1.15-0.323-2.267-0.935-3.233
				c-1.116-1.764-3.031-2.819-5.117-2.819H245.497c-1.029,0-2.003,0.247-2.896,0.736c-1.946,1.063-3.156,3.1-3.156,5.316V413.001z"
				/>
			<path style="fill:#AE8048;" d="M258.191,149.509c0,0-4.7,156.927-10.762,256.854h161.153c0,0,0-13.754,0-24.146
				S258.191,149.509,258.191,149.509z"/>
			<rect x="258.191" y="149.509" style="fill:#FFFFFF;" width="160.937" height="253.949"/>
			<g>
				<g>
					<path style="fill:#666667;" d="M285.331,158.305h-11.893c-1.152,0-2.194-0.467-2.949-1.221
						c-0.755-0.755-1.221-1.797-1.221-2.949v-21.881c0-1.12,0.442-2.138,1.161-2.887c0.759-0.791,1.827-1.283,3.009-1.283h11.893
						c1.152,0,2.194,0.467,2.949,1.221c0.755,0.755,1.221,1.797,1.221,2.949v21.881c0,1.149-0.465,2.19-1.217,2.945
						C287.529,157.836,286.485,158.305,285.331,158.305z"/>
					<path style="fill:#424242;" d="M285.331,156.644c0.671,0,1.302-0.262,1.777-0.738c0.471-0.473,0.732-1.102,0.732-1.771v-21.881
						c0-0.671-0.26-1.3-0.734-1.774c-0.475-0.474-1.105-0.735-1.774-0.735h-11.893c-0.69,0-1.333,0.274-1.811,0.772
						c-0.449,0.47-0.698,1.086-0.698,1.737v21.881c0,0.67,0.261,1.3,0.735,1.774c0.475,0.474,1.104,0.735,1.774,0.735H285.331z"/>
					<path style="fill:#313130;" d="M287.106,130.48c-0.475-0.474-1.105-0.735-1.774-0.735h-11.893c-0.69,0-1.333,0.274-1.811,0.772
						c-0.449,0.47-0.698,1.086-0.698,1.737v2.159c0-0.651,0.248-1.267,0.698-1.737c0.479-0.498,1.122-0.772,1.811-0.772h11.893
						c0.669,0,1.3,0.261,1.774,0.735c0.474,0.474,0.734,1.103,0.734,1.774v-2.159C287.84,131.583,287.579,130.953,287.106,130.48z"
						/>
				</g>
				<g>
					<path style="fill:#666667;" d="M403.881,158.305h-11.893c-1.152,0-2.194-0.467-2.949-1.221
						c-0.755-0.755-1.221-1.797-1.221-2.949v-21.881c0-1.12,0.442-2.138,1.161-2.887c0.759-0.791,1.827-1.283,3.009-1.283h11.893
						c1.152,0,2.194,0.467,2.949,1.221c0.755,0.755,1.221,1.797,1.221,2.949v21.881c0,1.149-0.465,2.19-1.217,2.945
						C406.079,157.836,405.034,158.305,403.881,158.305z"/>
					<path style="fill:#424242;" d="M403.881,156.644c0.671,0,1.302-0.262,1.777-0.738c0.471-0.473,0.732-1.102,0.732-1.771v-21.881
						c0-0.671-0.26-1.3-0.734-1.774c-0.474-0.474-1.105-0.735-1.774-0.735h-11.893c-0.69,0-1.333,0.274-1.811,0.772
						c-0.449,0.47-0.698,1.086-0.698,1.737v21.881c0,0.67,0.261,1.3,0.735,1.774c0.475,0.474,1.104,0.735,1.774,0.735H403.881z"/>
					<path style="fill:#313130;" d="M405.655,130.48c-0.474-0.474-1.105-0.735-1.774-0.735h-11.893c-0.69,0-1.333,0.274-1.811,0.772
						c-0.449,0.47-0.698,1.086-0.698,1.737v2.159c0-0.651,0.248-1.267,0.698-1.737c0.479-0.498,1.122-0.772,1.811-0.772h11.893
						c0.669,0,1.3,0.261,1.774,0.735c0.474,0.474,0.734,1.103,0.734,1.774v-2.159C406.389,131.583,406.129,130.953,405.655,130.48z"
						/>
				</g>
			</g>
			<g>
				<g>
					<path style="fill:#608FCA;" d="M305.046,239.46h-29.833v-29.833h29.833V239.46z M276.875,237.799h26.51v-26.51h-26.51V237.799z
						"/>
				</g>
				<g>
					<rect x="313.585" y="209.627" style="fill:#608FCA;" width="51.771" height="5.906"/>
					<rect x="313.585" y="220.712" style="fill:#A2A3A3;" width="91.017" height="2.953"/>
					<rect x="313.585" y="228.218" style="fill:#A2A3A3;" width="91.017" height="2.953"/>
					<rect x="313.585" y="235.725" style="fill:#A2A3A3;" width="80.306" height="2.953"/>
				</g>
				<polygon style="fill:#A7292B;" points="279.832,218.899 290.704,232.855 311.578,204.942 290.13,224.544 				"/>
			</g>
			<g>
				<g>
					<path style="fill:#608FCA;" d="M305.046,300.508h-29.833v-29.833h29.833V300.508z M276.875,298.847h26.51v-26.51h-26.51
						V298.847z"/>
				</g>
				<g>
					<rect x="313.585" y="270.675" style="fill:#608FCA;" width="51.771" height="5.906"/>
					<rect x="313.585" y="281.759" style="fill:#A2A3A3;" width="91.017" height="2.953"/>
					<rect x="313.585" y="289.266" style="fill:#A2A3A3;" width="91.017" height="2.953"/>
					<rect x="313.585" y="296.773" style="fill:#A2A3A3;" width="80.306" height="2.953"/>
				</g>
				<polygon style="fill:#A7292B;" points="279.832,279.947 290.704,293.903 311.578,265.99 290.13,285.591 				"/>
			</g>
			<g>
				<g>
					<path style="fill:#608FCA;" d="M305.046,361.556h-29.833v-29.833h29.833V361.556z M276.875,359.895h26.51v-26.51h-26.51
						V359.895z"/>
				</g>
				<g>
					<rect x="313.585" y="331.723" style="fill:#608FCA;" width="51.771" height="5.906"/>
					<rect x="313.585" y="342.807" style="fill:#A2A3A3;" width="91.017" height="2.953"/>
					<rect x="313.585" y="350.314" style="fill:#A2A3A3;" width="91.017" height="2.953"/>
					<rect x="313.585" y="357.821" style="fill:#A2A3A3;" width="80.306" height="2.953"/>
				</g>
				<polygon style="fill:#A7292B;" points="279.832,340.994 290.704,354.951 311.578,327.037 290.13,346.639 				"/>
			</g>
		</g>
		
			<text transform="matrix(1 0 0 1 293.6953 189.2074)" style="fill:#424242; font-family:'Raleway-SemiBold'; font-size:19.9369px;">CHECK LIST</text>
	</g>
	<g>
		<g>
			<polygon style="fill:#EDC599;" points="139.06,291.72 146.316,311.208 137.374,402.858 126.464,402.858 126.464,291.72 			"/>
			<path style="fill:#D8A77A;" d="M141.679,298.756l-2.619-7.036h-12.596v111.138h4.975
				C131.044,333.474,139.143,306.941,141.679,298.756z"/>
			<polygon style="fill:#EDC599;" points="102.541,291.72 95.286,311.208 104.228,402.858 115.137,402.858 115.137,291.72 			"/>
			<path style="fill:#D8A77A;" d="M102.541,291.72l-7.256,19.488l8.942,91.65h4.013c-8.857-77.237-2.025-95.922-2.025-95.922
				l0.581-9.57l1.59-5.646H102.541z"/>
			<path style="fill:#608FCA;" d="M149.33,153.173c0,0,26.577,28.923,29.618,29.14c3.041,0.217,29.328-16.294,29.328-16.294
				l4.562,9.993c0,0-30.197,24.332-36.889,24.332c-5.474,0-36.889-32.152-36.889-32.152L149.33,153.173z"/>
			<path style="fill:#84B7E4;" d="M149.33,153.173l-1.152,2.72c5.366,5.879,25.549,29.941,31.094,29.809
				c4.811-0.115,22.197-11.323,30.343-16.75l-1.339-2.932c0,0-26.287,16.511-29.328,16.293
				C175.907,182.096,149.33,153.173,149.33,153.173z"/>
			<path style="fill:#4474AC;" d="M212.838,176.013l-1.927-4.22c-7.953,5.841-30.68,22.379-33.422,22.662
				c-2.674,0.277-26.212-21.941-35.388-30.711l-3.042,4.448c0,0,31.415,32.152,36.889,32.152
				C182.641,200.345,212.838,176.013,212.838,176.013z"/>
			<path style="fill:#608FCA;" d="M91.665,153.173c0,0-32.335,37.535-32.853,42.46c-0.519,4.926,25.204,38.674,25.204,38.674
				l6.886-6.032c0,0-18.69-30.77-15.928-33.362c2.762-2.592,25.836-24.686,25.836-24.686L91.665,153.173z"/>
			<polygon style="fill:#424242;" points="91.665,245.517 95.161,311.208 146.316,311.208 149.33,245.517 107.499,230.702 			"/>
			<polygon style="fill:#666667;" points="146.316,311.208 149.33,245.517 145.412,244.129 144.489,248.193 141.924,311.208 			"/>
			<path style="fill:#313130;" d="M101.24,236.558l-9.575,8.958l3.496,65.691h6.42C101.581,289.779,101.695,253.903,101.24,236.558z
				"/>
			<path style="fill:#608FCA;" d="M149.33,153.173c-10.071-7.219-21.659-9.737-21.659-9.737l-7.174,10.848l-7.174-10.848
				c0,0-11.588,2.518-21.659,9.737c0,0,12.878,27.697,8.082,48.96c-4.036,17.893-7.351,32.666-8.082,43.384
				c0,0,11.636,7.217,24.365,9.95l4.425-4.425l4.439,4.439c12.757-2.721,24.436-9.965,24.436-9.965
				c-0.731-10.718-4.046-25.491-8.082-43.384C136.452,180.87,149.33,153.173,149.33,153.173z"/>
			<g>
				<path style="fill:#E4E4E4;" d="M122.282,199.517c0,0.985-0.799,1.784-1.784,1.784c-0.985,0-1.784-0.799-1.784-1.784
					c0-0.986,0.799-1.784,1.784-1.784C121.483,197.733,122.282,198.532,122.282,199.517z"/>
				<path style="fill:#E4E4E4;" d="M122.282,216.912c0,0.985-0.799,1.784-1.784,1.784c-0.985,0-1.784-0.799-1.784-1.784
					c0-0.985,0.799-1.784,1.784-1.784C121.483,215.128,122.282,215.927,122.282,216.912z"/>
				<path style="fill:#E4E4E4;" d="M122.282,234.307c0,0.985-0.799,1.784-1.784,1.784c-0.985,0-1.784-0.799-1.784-1.784
					c0-0.985,0.799-1.784,1.784-1.784C121.483,232.523,122.282,233.322,122.282,234.307z"/>
			</g>
			<path style="fill:#84B7E4;" d="M125.856,146.182l1.489,0.276c0,0,15.011,3.69,20.833,9.435c0,0,1.152-2.72,1.152-2.72
				c-10.071-7.219-21.659-9.737-21.659-9.737L125.856,146.182z"/>
			<path style="fill:#4474AC;" d="M104.919,196.8c0.526-16.824-6.799-24.762-6.799-24.762l-0.001,0.004
				c2.299,9.18,3.833,20.313,1.627,30.092c-4.036,17.893-7.351,32.666-8.082,43.384c0,0,4.032,2.492,9.928,5.102
				C99.321,234.514,104.393,213.623,104.919,196.8z"/>
			<path style="fill:#4474AC;" d="M113.324,143.436c0,0-11.588,2.518-21.659,9.737c0,0,0.586,1.263,1.457,3.441l0.691,0.564
				c0,0,10.19-7.39,20.639-8.653c0.743-0.09,1.386-0.23,1.976-0.396L113.324,143.436z"/>
			<polygon style="fill:#E4E4E4;" points="120.455,152.295 110.554,152.82 120.455,185.702 130.355,152.82 			"/>
			<path style="fill:#FBFDFF;" d="M127.472,143.436l-7.017,8.859l-7.017-8.859c0,0-9.271,4.628-11.588,15.497
				c0,0,10.209-6.638,18.605-2.59c8.396-4.048,18.605,2.59,18.605,2.59C136.743,148.064,127.472,143.436,127.472,143.436z"/>
			<path style="fill:#CE986B;" d="M124.458,130.6l-4.003,1.356l-4.003-1.356l-3.014,12.836c0.994,4.43,7.017,8.859,7.017,8.859
				s6.023-4.429,7.017-8.859L124.458,130.6z"/>
			<g>
				<path style="fill:#A7292B;" d="M134.632,79.266c-8.735-3.573-13.624-0.198-13.624-0.198s-4.558-3.375-13.293,0.198
					c-9.138,3.739-31.575,26.802-11.126,56.78c0,0,9.331-10.919,24.42-10.919c15.088,0,24.419,10.919,24.419,10.919
					C165.876,106.068,143.771,83.005,134.632,79.266z"/>
				<path style="fill:#822225;" d="M145.428,135.885c0,0-4.108-4.774-11.247-8.009l6.806-4.519c6.47-8.622,4.21-19.089,4.21-19.089
					c2.79,3.753,4.15,11.213,4.15,11.213c2.698-7.763,2.442-14.719,2.333-16.366C155.245,108.913,155.164,121.612,145.428,135.885z
					 M97.076,104.268c-2.79,3.753-4.15,11.213-4.15,11.213c-3.003-8.64-2.349-16.261-2.308-16.696
					c-3.767,9.843-3.875,22.665,5.971,37.1c0,0,4.165-4.843,11.399-8.079l-6.701-4.45C94.817,114.735,97.076,104.268,97.076,104.268
					z"/>
				<path style="fill:#EDC599;" d="M145.164,105.902c-0.637-0.127-1.272-0.087-1.886,0.064
					c-1.509-12.49-11.138-22.132-22.823-22.132s-21.314,9.642-22.823,22.132c-0.614-0.152-1.249-0.191-1.886-0.064
					c-2.793,0.558-4.501,3.792-3.816,7.222c0.686,3.431,3.506,5.759,6.299,5.201c0.208-0.042,0.396-0.126,0.591-0.196
					c3.227,9.791,11.682,16.795,21.635,16.795s18.408-7.003,21.635-16.795c0.195,0.07,0.383,0.155,0.591,0.196
					c2.793,0.558,5.613-1.77,6.299-5.201C149.665,109.694,147.957,106.461,145.164,105.902z"/>
				<g>
					<path style="opacity:0.2;fill:#C83353;" d="M112.441,117.5c0,1.018-1.805,1.843-4.033,1.843c-2.227,0-4.033-0.825-4.033-1.843
						c0-1.018,1.806-1.842,4.033-1.842C110.636,115.657,112.441,116.482,112.441,117.5z"/>
					<path style="opacity:0.2;fill:#C83353;" d="M136.534,117.5c0,1.018-1.805,1.843-4.033,1.843c-2.227,0-4.033-0.825-4.033-1.843
						c0-1.018,1.805-1.842,4.033-1.842C134.729,115.657,136.534,116.482,136.534,117.5z"/>
				</g>
				<path style="fill:#D8A77A;" d="M101.188,107.756c0-9.475,4.855-17.808,12.206-22.672c-8.319,2.973-14.572,11.031-15.762,20.883
					c-0.614-0.152-1.249-0.191-1.886-0.064c-2.793,0.558-4.501,3.792-3.816,7.222c0.686,3.431,3.506,5.759,6.299,5.201
					c0.208-0.042,0.396-0.126,0.591-0.196c3.227,9.791,11.682,16.795,21.635,16.795c1.278,0,2.531-0.119,3.752-0.341
					C111.176,132.575,101.188,121.347,101.188,107.756z"/>
				<path style="fill:#A7292B;" d="M113.265,92.667c0,0,5.46,11.019,18.166,13.699c0,0-1.092-6.552-1.39-10.721
					c0,0,11.217,13.125,9.132,28.6l6.452-1.401l5.36-7.941l0.099-12.309l-16.28-20.35l-15.982-2.78L96.489,92.667l-6.353,15.789
					l1.643,9.623l7.192,7.544l2.879,0.794C101.85,126.418,96.316,107.657,113.265,92.667z"/>
				<g>
					<path style="fill:#C83353;" d="M116.322,124.51l-2.423-0.332c0,0,2.498,2.948,6.711,2.948s6.712-2.948,6.712-2.948
						L116.322,124.51z"/>
					<path style="fill:#AE244A;" d="M124.465,123.442c-2.078-0.215-2.733-0.953-3.854,0.006c-1.121-0.958-1.776-0.221-3.854-0.006
						c-2.078,0.215-4.99-0.953-4.99-0.953c3.655,3.941,8.844,2.699,8.844,2.699s5.189,1.242,8.844-2.699
						C129.455,122.489,126.543,123.657,124.465,123.442z"/>
				</g>
				<g>
					<g>
						<path style="fill:#341E26;" d="M112.544,109.745c0,1.099-0.891,1.989-1.99,1.989c-1.099,0-1.989-0.891-1.989-1.989
							c0-1.099,0.891-1.99,1.989-1.99C111.653,107.756,112.544,108.646,112.544,109.745z"/>
						<circle style="fill:#FBFAFC;" cx="111.236" cy="109.1" r="0.51"/>
					</g>
					<g>
						<path style="fill:#341E26;" d="M132.345,109.745c0,1.099-0.891,1.989-1.989,1.989c-1.099,0-1.989-0.891-1.989-1.989
							c0-1.099,0.891-1.99,1.989-1.99C131.454,107.756,132.345,108.646,132.345,109.745z"/>
						<circle style="fill:#FBFAFC;" cx="131.037" cy="109.1" r="0.51"/>
					</g>
				</g>
				<path style="fill:#608FCA;" d="M130.355,102.602c-3.601,0-6.557,2.686-7.044,6.155h-5.713c-0.487-3.469-3.443-6.155-7.044-6.155
					c-3.939,0-7.144,3.204-7.144,7.144c0,3.939,3.204,7.143,7.144,7.143c3.851,0,6.979-3.068,7.118-6.886h5.565
					c0.139,3.817,3.267,6.886,7.118,6.886c3.939,0,7.144-3.204,7.144-7.143C137.499,105.806,134.295,102.602,130.355,102.602z
					 M110.555,115.642c-3.252,0-5.898-2.645-5.898-5.897c0-3.252,2.645-5.898,5.898-5.898c3.252,0,5.898,2.645,5.898,5.898
					C116.452,112.997,113.807,115.642,110.555,115.642z M130.355,115.642c-3.252,0-5.898-2.645-5.898-5.897
					c0-3.252,2.646-5.898,5.898-5.898c3.252,0,5.898,2.645,5.898,5.898C136.253,112.997,133.607,115.642,130.355,115.642z"/>
				<path style="fill:#822225;" d="M145.626,122.844l-5.386,1.169l0.746-0.495c6.47-8.622,4.21-19.089,4.21-19.089
					c2.79,3.753,4.15,11.213,4.15,11.213c0.791-2.274,1.325-4.477,1.686-6.5l-0.047,5.76L145.626,122.844z M101.85,126.418
					c0,0-0.313-1.074-0.563-2.899l0,0c-6.47-8.622-4.21-19.089-4.21-19.089c-2.79,3.753-4.15,11.213-4.15,11.213
					c-1.131-3.253-1.739-6.359-2.061-8.998l-0.729,1.812l1.643,9.623l7.192,7.544L101.85,126.418z"/>
				<linearGradient id="SVGID_1_" gradientUnits="userSpaceOnUse" x1="110.635" y1="101.8608" x2="110.5308" y2="112.0726">
					<stop  offset="0" style="stop-color:#FFFFFF"/>
					<stop  offset="0.9946" style="stop-color:#FBF9F6;stop-opacity:0"/>
				</linearGradient>
				<path style="fill:url(#SVGID_1_);" d="M116.452,109.745c0,3.257-2.64,5.897-5.897,5.897c-3.257,0-5.897-2.64-5.897-5.897
					c0-3.257,2.64-5.897,5.897-5.897C113.811,103.848,116.452,106.488,116.452,109.745z"/>
				
					<linearGradient id="SVGID_00000030467842389773093280000016239268080292929181_" gradientUnits="userSpaceOnUse" x1="130.4357" y1="101.8608" x2="130.3315" y2="112.0726">
					<stop  offset="0" style="stop-color:#FFFFFF"/>
					<stop  offset="0.9946" style="stop-color:#FBF9F6;stop-opacity:0"/>
				</linearGradient>
				<path style="fill:url(#SVGID_00000030467842389773093280000016239268080292929181_);" d="M136.252,109.745
					c0,3.257-2.64,5.897-5.897,5.897c-3.257,0-5.897-2.64-5.897-5.897c0-3.257,2.64-5.897,5.897-5.897
					C133.612,103.848,136.252,106.488,136.252,109.745z"/>
				<path style="fill:#CD404A;" d="M129.455,80.608c0,0,11.945,2.374,15.012,12.266C144.467,92.875,140.756,86.445,129.455,80.608z"
					/>
				<polygon style="fill:#D8A77A;" points="120.455,119.861 118.684,118.09 122.225,118.09 				"/>
			</g>
			<path style="fill:#4474AC;" d="M93.813,157.178l-2.148-4.005c0,0-32.335,37.535-32.853,42.46
				c-0.519,4.926,25.204,38.674,25.204,38.674l2.582-2.261c-6.241-9.653-21.198-35.638-20.398-37.56
				C67.186,192.12,91.358,160.396,93.813,157.178z"/>
			<path style="fill:#A7292B;" d="M115.137,402.858h-10.909c0,0-17.664,6.63-22.6,19.517h25.91l3.427-6.443l-0.411,6.443h4.387
				c0,0,2.807-8.225,2.122-12.612C116.378,405.376,115.137,402.858,115.137,402.858z"/>
			<path style="fill:#A7292B;" d="M126.459,402.858h10.909c0,0,17.664,6.63,22.6,19.517h-25.911l-3.427-6.443l0.411,6.443h-4.387
				c0,0-2.807-8.225-2.122-12.612C125.218,405.376,126.459,402.858,126.459,402.858z"/>
			<path style="fill:#822225;" d="M104.228,402.858c0,0-17.664,6.63-22.6,19.517h7.602c6.551-12.379,19.01-19.517,19.01-19.517
				H104.228z"/>
			<path style="fill:#822225;" d="M131.439,402.858h-4.98c0,0-1.241,2.517-1.926,6.904c-0.685,4.387,2.122,12.612,2.122,12.612
				h4.387l-0.411-6.443l3.427,6.443h5.018C130.177,415.787,131.439,402.858,131.439,402.858z"/>
			<path style="fill:#84B7E4;" d="M141.248,202.133c-2.712-12.022,0.226-26.097,3.292-36.063l0-0.001c0,0-8.525,15.045-7.568,29.887
				c0.819,12.701,7.344,33.111,7.516,52.238c2.997-1.538,4.842-2.676,4.842-2.676C148.6,234.799,145.285,220.026,141.248,202.133z"
				/>
			<path style="fill:#EDC599;" d="M84.016,234.307c0,0,0.289,5.664,1.307,7.916c1.315,2.907,5.639,12.114,6.727,10.533
				c1.089-1.582,0.852-17.809,1.436-20.999c0.585-3.19,1.727-5.725,1.065-5.673c-0.662,0.052-3.65,2.191-3.65,2.191L84.016,234.307z
				"/>
			<path style="fill:#D8A77A;" d="M92.05,252.755c0.132-0.191,0.243-0.605,0.339-1.174c-3.2-5.991-4.94-14.211-5.792-19.536
				l-2.582,2.261c0,0,0.288,5.664,1.307,7.916C86.638,245.13,90.962,254.337,92.05,252.755z"/>
		</g>
		<g>
			<path style="fill:#A76C31;" d="M176.338,421.67L176.338,421.67c-1.03-0.122-1.963-0.512-2.737-1.093
				c-1.563-1.173-2.477-3.124-2.231-5.205l36.474-308.908l5.633,0.665L176.338,421.67z"/>
			
				<rect x="194.888" y="106.37" transform="matrix(0.9931 0.1172 -0.1172 0.9931 32.4032 -21.3569)" style="fill:#D18E33;" width="5.672" height="316.725"/>
			<path style="fill:#DEC237;" d="M181.971,422.335L181.971,422.335l37.139-314.54l5.633,0.665l-36.474,308.908
				c-0.179,1.516-0.94,2.821-2.034,3.719C185.084,422.031,183.566,422.524,181.971,422.335z"/>
			<polygon style="fill:#EDC599;" points="207.845,106.465 218.609,87.858 224.743,108.46 			"/>
			<polygon style="fill:#CE986B;" points="218.609,87.858 213.478,107.13 207.845,106.465 			"/>
			<polygon style="fill:#D8A77A;" points="218.609,87.858 213.478,107.13 219.11,107.795 			"/>
			<polygon style="fill:#A7292B;" points="218.609,87.858 213.611,96.497 221.457,97.423 			"/>
			
				<rect x="174.1" y="389.372" transform="matrix(0.9931 0.1172 -0.1172 0.9931 47.2307 -18.0384)" style="fill:#4474AC;" width="5.672" height="6.108"/>
			
				<rect x="179.733" y="390.037" transform="matrix(0.9931 0.1173 -0.1173 0.9931 47.3558 -18.6969)" style="fill:#608FCA;" width="5.672" height="6.108"/>
			
				<rect x="185.365" y="390.702" transform="matrix(0.9931 0.1173 -0.1173 0.9931 47.4717 -19.3526)" style="fill:#84B7E4;" width="5.672" height="6.108"/>
		</g>
		<g>
			<path style="fill:#EDC599;" d="M216.926,173.992c0,0,6.18-6.096,6.466-12.873s-7.34-13.533-8.785-9.392
				C213.162,155.868,217.917,167.467,216.926,173.992z"/>
			<path style="fill:#D8A77A;" d="M220.811,169.03c-0.429-4.929-2.974-8.205-4.739-11.381c-1.022-1.84-1.31-4.169-1.314-6.211
				c-0.049,0.098-0.111,0.174-0.151,0.289c-1.445,4.141,3.31,15.74,2.319,22.265C216.926,173.992,219.09,171.999,220.811,169.03z"/>
		</g>
	</g>
</g>
<g id="DESIGNED_BY_FREEPIK">
	<g>
		<g id="XMLID_57_">
			<g id="XMLID_76_">
				<path id="XMLID_84_" style="fill:#1D262D;" d="M260.104,465.465c-0.432,0.443-0.803,0.931-1.108,1.453l-0.465-0.241
					c-0.067-0.298-0.349-0.503-0.659-0.466c-0.331,0.039-0.568,0.339-0.529,0.67c0.039,0.331,0.339,0.568,0.67,0.529
					c0.066-0.008,0.127-0.026,0.184-0.052l0.451,0.234c-0.251,0.554-0.433,1.139-0.539,1.744l0.746,0.132
					c0.23-1.306,0.85-2.507,1.792-3.473L260.104,465.465z"/>
				<path id="XMLID_83_" style="fill:#1D262D;" d="M265.592,463.163c-0.171,0-0.341,0.006-0.51,0.017l-0.074-0.626
					c0.188-0.149,0.296-0.389,0.266-0.645c-0.046-0.393-0.402-0.674-0.795-0.628c-0.393,0.046-0.674,0.402-0.628,0.795
					c0.03,0.254,0.189,0.461,0.404,0.564l0.074,0.624c-0.714,0.116-1.403,0.332-2.06,0.646l0.327,0.684
					c0.934-0.447,1.942-0.673,2.995-0.673c0.496,0,0.993,0.053,1.475,0.158l0.161-0.741
					C266.692,463.222,266.142,463.163,265.592,463.163z"/>
				<path id="XMLID_82_" style="fill:#1D262D;" d="M272.194,465.711c0.331-0.04,0.566-0.341,0.526-0.672
					c-0.04-0.331-0.341-0.566-0.672-0.526c-0.309,0.038-0.535,0.304-0.53,0.609l-0.416,0.363c-0.418-0.43-0.889-0.813-1.408-1.139
					l-0.404,0.641c1.134,0.715,2.021,1.726,2.563,2.925l0.69-0.313c-0.251-0.554-0.568-1.072-0.942-1.545l0.402-0.351
					C272.065,465.716,272.129,465.719,272.194,465.711z"/>
				<path id="XMLID_81_" style="fill:#1D262D;" d="M265.044,473.372c-0.386,0.023-0.775,0.035-1.157,0.035
					c-0.88,0-1.733-0.061-2.478-0.179c-0.39-0.062-0.846-0.155-1.27-0.292c1.046,1.861,3.069,3.125,5.388,3.125
					c2.855,0,5.262-1.916,5.95-4.504c-0.682,0.449-1.505,0.825-2.459,1.123C267.839,473.047,266.463,473.286,265.044,473.372z"/>
				<path id="XMLID_77_" style="fill:#1D262D;" d="M265.592,464.68c-3.352,0-6.08,2.666-6.08,5.943c0,0.426,0.046,0.849,0.137,1.261
					c0.673,0.483,2.706,0.89,5.348,0.731c2.879-0.173,5.297-0.957,6.672-2.159c-0.006-0.195-0.021-0.39-0.045-0.582
					C271.244,466.913,268.65,464.68,265.592,464.68z M263.432,471.194c-1.02,0-1.85-0.83-1.85-1.85c0-1.02,0.83-1.85,1.85-1.85
					c1.02,0,1.85,0.83,1.85,1.85C265.282,470.365,264.452,471.194,263.432,471.194z M268.17,470.286c-0.75,0-1.36-0.61-1.36-1.36
					s0.61-1.361,1.36-1.361c0.75,0,1.361,0.61,1.361,1.361S268.92,470.286,268.17,470.286z"/>
			</g>
			<path id="XMLID_74_" style="fill:#1D262D;" d="M281.595,466.547c-0.295-0.116-0.805-0.309-1.382-0.237
				c-0.551,0.069-0.844,0.341-0.844,1.007v0.866h2.228v1.717h-2.228v5.455h-1.932v-5.455h-1.34v-1.717h1.34v-0.888
				c0-1.68,0.896-2.783,2.568-2.783c0.643,0,1.157,0.122,1.59,0.308L281.595,466.547z"/>
			<path id="XMLID_72_" style="fill:#1D262D;" d="M286.298,469.879c-0.177-0.03-0.358-0.046-0.526-0.046
				c-0.895,0-1.51,0.548-1.51,1.614v3.908h-1.932v-7.172h1.873v0.785c0.451-0.673,1.14-0.977,2.021-0.977
				c0.414,0,0.848,0.128,1.094,0.337L286.298,469.879z"/>
			<path id="XMLID_69_" style="fill:#1D262D;" d="M293.965,471.757c0,0.222-0.015,0.489-0.037,0.651h-5.085
				c0.207,1.036,0.933,1.488,1.843,1.488c0.622,0,1.295-0.252,1.813-0.688l1.133,1.243c-0.814,0.748-1.85,1.088-3.057,1.088
				c-2.198,0-3.723-1.495-3.723-3.753c0-2.258,1.48-3.797,3.627-3.797C292.544,467.99,293.958,469.522,293.965,471.757z
				 M288.851,471.091h3.175c-0.177-0.918-0.733-1.436-1.562-1.436C289.554,469.655,289.021,470.203,288.851,471.091z"/>
			<path id="XMLID_66_" style="fill:#1D262D;" d="M301.618,471.757c0,0.222-0.015,0.489-0.037,0.651h-5.085
				c0.207,1.036,0.932,1.488,1.843,1.488c0.622,0,1.295-0.252,1.814-0.688l1.132,1.243c-0.814,0.748-1.85,1.088-3.057,1.088
				c-2.198,0-3.723-1.495-3.723-3.753c0-2.258,1.48-3.797,3.627-3.797C300.197,467.99,301.611,469.522,301.618,471.757z
				 M296.504,471.091h3.175c-0.178-0.918-0.733-1.436-1.562-1.436C297.207,469.655,296.674,470.203,296.504,471.091z"/>
			<path id="XMLID_63_" style="fill:#1D262D;" d="M309.964,471.764c0,2.154-1.495,3.775-3.471,3.775
				c-0.962,0-1.643-0.378-2.109-0.933v3.708h-1.924v-10.133h1.887v0.792c0.466-0.585,1.155-0.984,2.139-0.984
				C308.469,467.99,309.964,469.61,309.964,471.764z M304.287,471.764c0,1.132,0.747,1.976,1.843,1.976
				c1.14,0,1.85-0.881,1.85-1.976c0-1.095-0.711-1.976-1.85-1.976C305.035,469.788,304.287,470.632,304.287,471.764z"/>
			<path id="XMLID_60_" style="fill:#1D262D;" d="M313.067,465.836c0,0.696-0.54,1.229-1.236,1.229
				c-0.696,0-1.229-0.533-1.229-1.229c0-0.696,0.533-1.243,1.229-1.243C312.527,464.592,313.067,465.14,313.067,465.836z
				 M312.809,475.354h-1.932v-7.172h1.932V475.354z"/>
			<path id="XMLID_58_" style="fill:#1D262D;" d="M316.032,470.736l2.702-2.554h2.368l-3.479,3.375l3.501,3.797h-2.376l-2.716-2.901
				v2.901H314.1v-10.658h1.932V470.736z"/>
		</g>
		<g>
			<path style="fill:#1D262D;" d="M184.412,475.289v-1.055c-0.527,0.718-1.391,1.23-2.387,1.23c-1.846,0-3.149-1.406-3.149-3.706
				c0-2.256,1.289-3.721,3.149-3.721c0.952,0,1.816,0.469,2.387,1.245v-3.765h1.099v9.77H184.412z M184.412,473.37v-3.208
				c-0.395-0.615-1.245-1.143-2.124-1.143c-1.421,0-2.27,1.172-2.27,2.739c0,1.567,0.85,2.724,2.27,2.724
				C183.168,474.483,184.017,473.986,184.412,473.37z"/>
			<path style="fill:#1D262D;" d="M186.932,471.744c0-2.051,1.465-3.706,3.486-3.706c2.139,0,3.398,1.67,3.398,3.794v0.279h-5.727
				c0.088,1.333,1.025,2.446,2.549,2.446c0.805,0,1.626-0.322,2.182-0.894l0.527,0.718c-0.703,0.703-1.655,1.084-2.812,1.084
				C188.44,475.465,186.932,473.956,186.932,471.744z M190.403,468.947c-1.509,0-2.256,1.274-2.314,2.358h4.643
				C192.718,470.25,192.015,468.947,190.403,468.947z"/>
			<path style="fill:#1D262D;" d="M194.607,474.351l0.571-0.791c0.469,0.542,1.362,1.011,2.329,1.011c1.084,0,1.67-0.513,1.67-1.216
				c0-1.714-4.38-0.659-4.38-3.281c0-1.098,0.952-2.036,2.636-2.036c1.201,0,2.051,0.454,2.622,1.026l-0.513,0.762
				c-0.424-0.513-1.201-0.894-2.109-0.894c-0.967,0-1.567,0.483-1.567,1.113c0,1.552,4.38,0.527,4.38,3.281
				c0,1.187-0.952,2.138-2.783,2.138C196.306,475.465,195.325,475.113,194.607,474.351z"/>
			<path style="fill:#1D262D;" d="M201.477,466.471c0-0.41,0.337-0.747,0.732-0.747c0.41,0,0.747,0.337,0.747,0.747
				c0,0.41-0.337,0.732-0.747,0.732C201.814,467.203,201.477,466.881,201.477,466.471z M201.667,475.289v-7.075h1.099v7.075H201.667
				z"/>
			<path style="fill:#1D262D;" d="M204.582,477.105l0.556-0.82c0.586,0.703,1.289,0.967,2.3,0.967c1.172,0,2.27-0.571,2.27-2.124
				v-1.011c-0.513,0.718-1.377,1.26-2.373,1.26c-1.845,0-3.149-1.377-3.149-3.662c0-2.27,1.289-3.677,3.149-3.677
				c0.952,0,1.802,0.469,2.373,1.245v-1.069h1.098v6.87c0,2.344-1.641,3.076-3.369,3.076
				C206.237,478.16,205.417,477.926,204.582,477.105z M209.709,473.253v-3.091c-0.381-0.615-1.23-1.143-2.109-1.143
				c-1.421,0-2.27,1.128-2.27,2.695c0,1.553,0.849,2.695,2.27,2.695C208.478,474.41,209.328,473.868,209.709,473.253z"/>
			<path style="fill:#1D262D;" d="M217.413,475.289v-4.629c0-1.245-0.63-1.641-1.582-1.641c-0.865,0-1.685,0.527-2.095,1.099v5.17
				h-1.099v-7.075h1.099v1.025c0.498-0.586,1.465-1.201,2.519-1.201c1.48,0,2.256,0.747,2.256,2.285v4.966H217.413z"/>
			<path style="fill:#1D262D;" d="M219.932,471.744c0-2.051,1.465-3.706,3.486-3.706c2.139,0,3.398,1.67,3.398,3.794v0.279h-5.727
				c0.088,1.333,1.025,2.446,2.549,2.446c0.806,0,1.626-0.322,2.183-0.894l0.527,0.718c-0.703,0.703-1.655,1.084-2.812,1.084
				C221.441,475.465,219.932,473.956,219.932,471.744z M223.404,468.947c-1.509,0-2.256,1.274-2.314,2.358h4.643
				C225.718,470.25,225.015,468.947,223.404,468.947z"/>
			<path style="fill:#1D262D;" d="M233.35,475.289v-1.055c-0.527,0.718-1.392,1.23-2.388,1.23c-1.846,0-3.149-1.406-3.149-3.706
				c0-2.256,1.289-3.721,3.149-3.721c0.952,0,1.817,0.469,2.388,1.245v-3.765h1.098v9.77H233.35z M233.35,473.37v-3.208
				c-0.396-0.615-1.245-1.143-2.124-1.143c-1.421,0-2.27,1.172-2.27,2.739c0,1.567,0.849,2.724,2.27,2.724
				C232.105,474.483,232.954,473.986,233.35,473.37z"/>
			<path style="fill:#1D262D;" d="M239.692,475.289v-9.77h1.098v3.765c0.572-0.776,1.421-1.245,2.388-1.245
				c1.845,0,3.149,1.465,3.149,3.721c0,2.299-1.304,3.706-3.149,3.706c-0.996,0-1.86-0.513-2.388-1.23v1.055H239.692z
				 M242.9,474.483c1.436,0,2.285-1.157,2.285-2.724c0-1.568-0.85-2.739-2.285-2.739c-0.864,0-1.728,0.527-2.109,1.143v3.208
				C241.171,473.986,242.036,474.483,242.9,474.483z"/>
			<path style="fill:#1D262D;" d="M247.528,477.061c0.161,0.073,0.425,0.117,0.601,0.117c0.483,0,0.805-0.161,1.055-0.747
				l0.469-1.069l-2.959-7.148h1.187l2.358,5.8l2.344-5.8h1.201l-3.545,8.51c-0.425,1.025-1.143,1.421-2.08,1.435
				c-0.234,0-0.601-0.044-0.806-0.103L247.528,477.061z"/>
		</g>
	</g>
</g>
</svg>
